<?xml version="1.0" encoding="utf-8"?>
<!-- Generator: Adobe Illustrator 21.1.0, SVG Export Plug-In . SVG Version: 6.00 Build 0)  -->
<svg version="1.1" id="Capa_2" xmlns="http://www.w3.org/2000/svg" xmlns:xlink="http://www.w3.org/1999/xlink" x="0px" y="0px"
	 viewBox="0 0 256 256" style="enable-background:new 0 0 256 256;" xml:space="preserve">
<style type="text/css">
	.st0{fill:#CCCCCC;}
</style>
<title>icons</title>
<path class="st0" d="M191,183.5L135.5,128l55.4-55.5c0.6-0.6,0.6-1.5,0-2.1l-5.4-5.4c-0.6-0.6-1.5-0.6-2.1,0L128,120.5L72.5,65
	c-0.6-0.6-1.5-0.6-2.1,0L65,70.4c-0.6,0.6-0.6,1.5,0,2.1l55.5,55.5L65,183.5c-0.6,0.6-0.6,1.5,0,2.1l5.4,5.4c0.6,0.6,1.5,0.6,2.1,0
	l55.5-55.5l55.5,55.5c0.6,0.6,1.5,0.6,2.1,0l5.4-5.4C191.6,185,191.6,184.1,191,183.5z"/>
</svg>
